<svg width="127" height="40" viewBox="0 0 127 40" fill="none" xmlns="http://www.w3.org/2000/svg">
<path d="M69.9634 35.3638C69.9634 37.9169 67.8803 40 65.3115 40C62.7585 40 60.6753 37.9169 60.6753 35.3638C60.6753 32.7951 62.7585 30.7275 65.3115 30.7275C67.8803 30.7275 69.9634 32.7951 69.9634 35.3638ZM69.3056 35.3638C69.3056 33.171 67.52 31.3854 65.3272 31.3854C63.1187 31.3854 61.3488 33.171 61.3488 35.3638C61.3488 37.5566 63.1187 39.3422 65.3272 39.3422C67.52 39.3422 69.3056 37.5566 69.3056 35.3638Z" fill="white"/>
<path d="M48.1762 35.3794C48.1762 30.9468 48.1762 30.8372 48.4895 30.8372C48.7871 30.8372 48.8027 30.9468 48.8027 32.9517V35.0662H51.7004H54.598V32.9517V30.8372H54.9896H55.3812V35.3794V39.9217H54.9896H54.598V37.8072V35.6927H51.7004H48.8027V37.8072C48.8027 39.812 48.7871 39.9217 48.4895 39.9217C48.1762 39.9217 48.1762 39.812 48.1762 35.3794Z" fill="white"/>
<path d="M75.4298 35.3794C75.4298 30.9625 75.4454 30.8372 75.743 30.8372C75.9623 30.8372 76.5418 31.5733 77.8732 33.4999L79.6901 36.1782L81.507 33.4999C82.9793 31.3384 83.3866 30.8372 83.6842 30.8372H84.0444V35.3794V39.9217H83.6528H83.2613L83.23 36.0529L83.183 32.1685L81.4287 34.7216L79.6901 37.2746L78.625 35.7397C78.0455 34.8939 77.2154 33.7191 76.8081 33.1239L76.0563 32.0432V35.9746C76.0563 39.812 76.0406 39.9217 75.743 39.9217C75.4298 39.9217 75.4298 39.812 75.4298 35.3794Z" fill="white"/>
<path d="M89.9963 35.3794V30.8372H93.2072C96.3085 30.8372 96.4182 30.8528 96.4182 31.1504C96.4182 31.448 96.3085 31.4637 93.5205 31.4637H90.6229V33.2649V35.0662H93.2072C95.682 35.0662 95.7916 35.0818 95.7916 35.3794C95.7916 35.677 95.682 35.6927 93.2072 35.6927H90.6229V37.4939V39.2952H93.5988C96.4651 39.2952 96.5748 39.3108 96.5748 39.6084C96.5748 39.906 96.4651 39.9217 93.2856 39.9217H89.9963V35.3794Z" fill="white"/>
<path d="M33.1397 15.8007V4.3667H37.8229C43.1484 4.3667 44.2604 4.50767 46.093 5.36913C48.8653 6.68482 50.2907 9.4885 49.7738 12.5428C49.2726 15.4561 47.2834 17.4609 43.9942 18.3224C42.9761 18.6043 42.1303 18.667 38.8254 18.7297L34.8626 18.8236V23.0213V27.2347H34.0012H33.1397V15.8007V15.8007ZM44.0255 16.6778C46.9231 15.7067 48.3328 13.7488 48.1292 11.0235C47.9412 8.40775 46.3593 6.79446 43.3676 6.16794C42.6158 6.01131 41.2218 5.933 38.5904 5.933H34.8626V11.5873V17.2573L38.8254 17.179C42.5845 17.1007 42.8351 17.0694 44.0255 16.6778Z" fill="white"/>
<path d="M59.297 16.5838V5.933H55.3029H51.3088V5.14985V4.3667H60.1584H69.008V5.14985V5.933H65.0139H61.0199V16.5838V27.2347H60.1584H59.297V16.5838Z" fill="white"/>
<path d="M72.2972 15.8007V4.3667H73.1587H74.0201V15.8007V27.2347H73.1587H72.2972V15.8007Z" fill="white"/>
<path d="M79.1889 15.7851V4.35107L79.9877 4.39806L80.8022 4.44505L85.3131 11.1018C87.8035 14.767 89.871 17.7586 89.918 17.7586C89.965 17.7586 92.0482 14.767 94.5229 11.1018L99.0495 4.44505L99.8483 4.39806L100.647 4.35107V15.7851V27.2347H99.7857H98.9242L98.8929 17.414L98.8459 7.5933L94.4133 14.0465C91.9699 17.602 89.9337 20.4996 89.871 20.4996C89.8084 20.4839 87.7565 17.555 85.2974 13.9681L80.8335 7.45234L80.7865 17.3514L80.7552 27.2347H79.972H79.1889V15.7851Z" fill="white"/>
<path d="M104.171 26.107C104.453 25.4804 106.85 20.3117 109.481 14.626L114.258 4.28843L115.088 4.24145L115.934 4.19446L120.696 14.5007C123.312 20.1707 125.708 25.3551 126.037 26.0286L126.616 27.2347H125.661L124.69 27.219L123.265 24.0551L121.839 20.8912H115.057H108.291L106.85 24.0551L105.424 27.2347H104.532H103.639L104.171 26.107V26.107ZM120.962 19.043C120.602 18.0875 115.151 6.2463 115.073 6.2463C115.01 6.2463 109.418 18.3225 109.137 19.1056C109.105 19.1839 111.627 19.2466 115.057 19.2466C119.897 19.2466 121.025 19.2153 120.962 19.043Z" fill="white"/>
<path d="M3.1138 23.9142C0.278799 20.2177 -0.692308 15.3778 0.498078 10.8669C0.999294 8.97168 3.20778 5.00895 3.77165 4.99329C3.84996 4.99329 5.27529 6.3403 6.9199 7.98491L9.91154 10.9765L9.34766 12.073C8.81512 13.1224 8.7838 13.2477 8.7838 14.7826C8.7838 16.3176 8.81512 16.4273 9.34766 17.4923L9.91154 18.5888L6.82593 21.6744L3.74032 24.7443L3.1138 23.9142V23.9142Z" fill="white"/>
<path d="M7.87533 6.90412C6.26204 5.29084 4.94635 3.89683 4.94635 3.80285C4.94635 3.70888 5.35359 3.33296 5.83914 2.97271C10.2718 -0.300854 16.208 -0.927366 21.0322 1.37509C22.3793 2.03294 23.9455 3.0197 24.3998 3.53658C24.666 3.81852 24.5564 3.94382 21.6431 6.85714L18.6045 9.89575L17.649 9.4102C15.6598 8.42343 13.9212 8.40777 11.979 9.37887C11.4778 9.64514 11.0079 9.84876 10.9453 9.84876C10.867 9.84876 9.48862 8.53307 7.87533 6.90412V6.90412Z" fill="white"/>
<path d="M22.6612 21.69L19.6382 18.667L20.0298 17.9778C20.5623 17.0537 20.9226 15.7694 20.9226 14.7669C20.9226 13.7802 20.4684 12.2609 19.9828 11.5717L19.6226 11.0705L22.7082 7.98486L25.7938 4.91492L26.3576 5.54144C27.6577 7.02942 28.8324 9.5355 29.3023 11.8693C29.5216 12.8874 29.5529 13.6862 29.4902 15.3935C29.3963 17.9778 29.0987 19.2152 28.0492 21.361C27.4227 22.6298 26.107 24.5876 25.8094 24.6973C25.7468 24.7129 24.3371 23.3659 22.6612 21.69V21.69Z" fill="white"/>
<path d="M12.6995 29.4745C11.4152 29.2709 9.59826 28.7227 8.47052 28.1901C7.24881 27.5949 4.94635 26.0913 4.94635 25.8564C4.94635 25.7937 6.30903 24.384 7.9693 22.7238L10.9923 19.7008L11.9164 20.1864C14.0465 21.2671 16.1767 21.1575 18.2129 19.8574C18.5575 19.6538 18.6828 19.7478 21.6274 22.6924C23.3034 24.3684 24.6817 25.778 24.6817 25.825C24.6817 26.0286 22.3479 27.6106 21.3298 28.0962C19.2936 29.0673 17.6647 29.4432 15.2839 29.5058C14.1249 29.5372 12.9658 29.5215 12.6995 29.4745V29.4745Z" fill="white"/>
</svg>
