<svg width="20" height="20" viewBox="0 0 20 20" fill="none" xmlns="http://www.w3.org/2000/svg">
<path d="M20 10.0005C19.9997 8.08952 19.4518 6.21864 18.4213 4.60934C17.3908 3.00004 15.9207 1.71973 14.1851 0.91996C12.4495 0.120194 10.5211 -0.165529 8.62821 0.0966187C6.73529 0.358766 4.95712 1.1578 3.50421 2.39914C2.0513 3.64047 0.984494 5.27212 0.430087 7.10092C-0.124321 8.92971 -0.143113 10.8791 0.375935 12.7182C0.894983 14.5574 1.93014 16.2093 3.35884 17.4784C4.78755 18.7475 6.54999 19.5807 8.4375 19.8793V12.8911H5.89875V10.0005H8.4375V7.79738C8.4375 5.29113 9.93062 3.90676 12.2144 3.90676C12.9644 3.91716 13.7126 3.98233 14.4531 4.10176V6.56301H13.1919C12.9769 6.53446 12.7584 6.55465 12.5523 6.62207C12.3462 6.68949 12.158 6.80242 12.0015 6.95248C11.845 7.10254 11.7243 7.2859 11.6483 7.48896C11.5723 7.69202 11.543 7.90957 11.5625 8.12551V10.0005H14.3362L13.8925 12.8911H11.5625V19.8793C13.9149 19.5071 16.0572 18.3076 17.604 16.4967C19.1507 14.6857 20.0004 12.3821 20 10.0005V10.0005Z" fill="#858C94"/>
</svg>
