<svg width="20" height="18" viewBox="0 0 20 18" fill="none" xmlns="http://www.w3.org/2000/svg">
<path d="M20 2.8125C19.25 3.125 18.5 3.375 17.625 3.4375C18.5 2.9375 19.125 2.125 19.4375 1.1875C18.625 1.6875 17.75 2 16.8125 2.1875C16.0625 1.375 15 0.875 13.875 0.875C11.625 0.875 9.75003 2.6875 9.75003 5C9.75003 5.3125 9.81253 5.625 9.87503 5.9375C6.43753 5.75 3.43753 4.125 1.37503 1.625C1.00003 2.25 0.812531 2.9375 0.812531 3.6875C0.812531 5.125 1.56253 6.375 2.62503 7.125C1.93753 7.125 1.31253 6.9375 0.750031 6.625V6.6875C0.750031 8.6875 2.18753 10.3125 4.06253 10.6875C3.68753 10.75 3.37503 10.8125 3.00003 10.8125C2.75003 10.8125 2.50003 10.8125 2.25003 10.75C2.75003 12.375 4.31253 13.5625 6.06253 13.625C4.68753 14.75 2.87503 15.375 0.937531 15.375C0.625031 15.375 0.250031 15.375 -0.0624695 15.3125C1.81253 16.4375 4.00003 17.125 6.31253 17.125C13.875 17.125 18 10.875 18 5.4375C18 5.25 18 5.0625 18 4.9375C18.75 4.3125 19.4375 3.625 20 2.8125Z" fill="#858C94"/>
</svg>
